<?xml version="1.0" standalone="no"?>
<!DOCTYPE svg PUBLIC "-//W3C//DTD SVG 20010904//EN"
 "http://www.w3.org/TR/2001/REC-SVG-20010904/DTD/svg10.dtd">
<svg version="1.0" xmlns="http://www.w3.org/2000/svg"
 width="300.000000pt" height="300.000000pt" viewBox="0 0 300.000000 300.000000"
 preserveAspectRatio="xMidYMid meet">
<metadata>
Created by potrace 1.10, written by Peter Selinger 2001-2011
</metadata>
<g transform="translate(0.000000,300.000000) scale(0.100000,-0.100000)"
fill="#000000" stroke="none">
<path d="M2050 2360 c-263 -42 -420 -225 -420 -490 0 -152 46 -268 146 -366
69 -68 179 -120 388 -184 180 -54 248 -84 283 -122 94 -101 31 -293 -115 -348
-48 -18 -73 -21 -152 -18 -106 5 -141 18 -203 77 -48 45 -73 93 -97 184 -11
45 -23 72 -31 72 -8 0 -74 -6 -147 -14 l-134 -14 7 -51 c4 -28 18 -89 32 -136
63 -219 189 -353 383 -406 90 -25 319 -25 410 -1 197 53 328 188 375 388 32
138 10 326 -52 442 -75 137 -195 209 -499 297 -207 60 -295 116 -310 196 -23
124 98 212 280 202 138 -8 200 -56 238 -182 l21 -71 146 3 c80 2 148 6 150 8
2 2 -3 46 -11 98 -36 218 -166 369 -365 421 -71 19 -249 27 -323 15z m310 -54
c174 -42 302 -180 333 -360 14 -84 12 -86 -110 -86 l-92 0 -34 73 c-62 133
-152 184 -311 175 -137 -8 -239 -71 -265 -165 -15 -52 -14 -72 8 -118 41 -88
120 -134 354 -204 76 -23 171 -55 212 -72 195 -82 295 -241 295 -470 0 -199
-100 -381 -251 -456 -162 -81 -436 -81 -598 -2 -128 63 -218 186 -262 358 -29
115 -28 118 34 126 28 4 74 7 101 8 l50 2 25 -66 c73 -186 171 -260 345 -260
108 0 177 22 233 74 63 58 94 115 100 186 7 75 -9 123 -59 177 -46 50 -103 75
-313 140 -243 75 -344 134 -415 244 -48 75 -70 157 -70 260 0 241 133 400 373
446 82 15 231 11 317 -10z"/>
<path d="M970 1738 c0 -337 -5 -647 -10 -688 -19 -147 -78 -210 -198 -212 -75
-1 -121 15 -160 55 -43 44 -63 97 -69 184 l-6 73 -31 -1 c-17 0 -94 -8 -171
-17 l-140 -17 4 -70 c16 -326 217 -514 549 -515 288 0 484 133 560 381 14 47
17 145 21 747 l6 692 -177 0 -178 0 0 -612z m308 -63 c3 -696 0 -734 -58 -852
-37 -74 -125 -160 -205 -198 -68 -32 -183 -55 -273 -55 -223 0 -380 84 -457
244 -36 77 -59 171 -53 226 3 31 7 35 41 42 22 5 77 9 124 11 l86 2 13 -61
c31 -155 120 -237 254 -236 122 0 199 56 236 170 16 52 18 112 21 687 2 347 6
636 8 643 4 10 36 12 132 10 l128 -3 3 -630z"/>
</g>
</svg>
